<svg width="774" height="367" viewBox="0 0 774 367" fill="none" xmlns="http://www.w3.org/2000/svg">
<path d="M24.4602 364.789C24.4602 364.789 23.7802 362.789 22.6802 359.069" stroke="#3F3D56" stroke-width="9" stroke-miterlimit="10"/>
<path d="M19.4601 347.47C-4.84993 253.87 -80.64 -177.51 679.12 91.7903" stroke="#3F3D56" stroke-width="9" stroke-miterlimit="10" stroke-dasharray="12.04 12.04"/>
<path d="M770.29 129.624L773.88 130.184L773.32 129.654H773.62L773.15 129.494L708.06 67.7637L692.26 92.6937L679.12 115.434L685.21 116.384L682.51 128.704L770.29 129.624Z" fill="url(#paint0_linear)"/>
<path d="M694.991 93.9941L682.991 114.804L770.991 129.134L714.311 89.6641L694.991 93.9941Z" fill="#F72F7A"/>
<path opacity="0.2" d="M694.991 93.9941L682.991 114.804L770.991 129.134L714.311 89.6641L694.991 93.9941Z" fill="black"/>
<path d="M709.441 71.1934L770.991 129.133L694.991 93.9934L709.441 71.1934Z" fill="#F72F7A"/>
<path d="M686.233 127.033L770.753 128.643L691.853 100.623L686.233 127.033Z" fill="#F72F7A"/>
<defs>
<linearGradient id="paint0_linear" x1="66174.8" y1="66105.4" x2="68351.4" y2="62670.3" gradientUnits="userSpaceOnUse">
<stop stop-color="#808080" stop-opacity="0.25"/>
<stop offset="0.54" stop-color="#808080" stop-opacity="0.12"/>
<stop offset="1" stop-color="#808080" stop-opacity="0.1"/>
</linearGradient>
</defs>
</svg>
