<svg width="342" height="224" viewBox="0 0 342 224" fill="none" xmlns="http://www.w3.org/2000/svg">
<g clip-path="url(#clip0)">
<path d="M71.1033 97.5489C53.8591 97.6281 39.823 97.882 39.823 97.882C39.823 97.882 56.5071 75.8589 71.0407 84.0183C85.5743 92.1777 102.27 97.5952 102.27 97.5952C102.27 97.5952 88.3475 97.4697 71.1033 97.5489Z" fill="#F2F2F2"/>
<path d="M264.459 104.093C266.454 104.093 268.071 102.481 268.071 100.493C268.071 98.5052 266.454 96.8936 264.459 96.8936C262.464 96.8936 260.847 98.5052 260.847 100.493C260.847 102.481 262.464 104.093 264.459 104.093Z" fill="#FF6584"/>
<path d="M265.024 125.862L238.014 156.77L238.848 157.493L265.857 126.585L265.024 125.862Z" fill="#3F3D56"/>
<path d="M265.441 132.019C268.653 132.019 271.257 129.425 271.257 126.224C271.257 123.023 268.653 120.428 265.441 120.428C262.229 120.428 259.625 123.023 259.625 126.224C259.625 129.425 262.229 132.019 265.441 132.019Z" fill="#3F3D56"/>
<path d="M248.794 145.272C248.794 145.272 259.904 131.299 245.695 121.713L248.794 145.272Z" fill="#3F3D56"/>
<path d="M67.5198 169.808C87.5263 206.783 129.987 222.655 129.987 222.655C129.987 222.655 140.011 178.58 120.005 141.606C99.9983 104.632 57.5373 88.7598 57.5373 88.7598C57.5373 88.7598 47.5133 132.834 67.5198 169.808Z" fill="#3F3D56"/>
<path d="M81.271 157.645C117.391 179.3 131.302 222.314 131.302 222.314C131.302 222.314 86.6508 230.217 50.5308 208.562C14.4109 186.906 0.5 143.892 0.5 143.892C0.5 143.892 45.151 135.989 81.271 157.645Z" fill="#F72F7A"/>
<path d="M224.985 157.951C188.674 179.287 174.382 222.177 174.382 222.177C174.382 222.177 218.961 230.473 255.272 209.137C291.583 187.801 305.875 144.911 305.875 144.911C305.875 144.911 261.296 136.615 224.985 157.951Z" fill="#3F3D56"/>
<path d="M237.709 171.178C217.375 207.975 174.775 223.472 174.775 223.472C174.775 223.472 165.142 179.311 185.476 142.514C205.81 105.718 248.41 90.2207 248.41 90.2207C248.41 90.2207 258.043 134.382 237.709 171.178Z" fill="#F72F7A"/>
<path d="M163.917 69.9029C161.818 68.0112 160.509 65.4027 160.249 62.5945C159.99 59.7862 160.798 56.9832 162.515 54.7412C162.288 54.9535 162.066 55.1739 161.853 55.4083C160.859 56.5038 160.091 57.7837 159.594 59.1749C159.096 60.5661 158.878 62.0413 158.953 63.5164C159.103 66.4954 160.435 69.2928 162.655 71.2933C164.875 73.2938 167.802 74.3334 170.792 74.1834C172.272 74.1092 173.723 73.7451 175.062 73.1121C176.401 72.479 177.602 71.5893 178.596 70.4938C178.808 70.2594 179.006 70.0171 179.195 69.7705C177.129 71.6977 174.412 72.7809 171.582 72.8055C168.752 72.83 166.016 71.794 163.917 69.9029Z" fill="#2F2E41"/>
<path d="M153.694 77.8849C166.531 77.8849 176.937 67.5146 176.937 54.7222C176.937 41.9299 166.531 31.5596 153.694 31.5596C140.857 31.5596 130.45 41.9299 130.45 54.7222C130.45 67.5146 140.857 77.8849 153.694 77.8849Z" fill="#2F2E41"/>
<path d="M147.309 84.4843L147.998 82.6997L135.462 93.2702L120.308 101.782C120.308 101.782 112.594 72.1291 112.043 71.58C111.492 71.0309 101.573 50.1644 97.1652 60.0485C92.7569 69.9327 105.706 75.6984 105.706 75.6984C105.706 75.6984 106.119 111.803 119.344 111.528C132.569 111.254 148.962 99.3105 149.238 98.2122C149.513 97.114 147.309 84.4843 147.309 84.4843Z" fill="#FFB8B8"/>
<path d="M150.891 78.4432C158.499 78.4432 164.667 72.297 164.667 64.7153C164.667 57.1335 158.499 50.9873 150.891 50.9873C143.283 50.9873 137.115 57.1335 137.115 64.7153C137.115 72.297 143.283 78.4432 150.891 78.4432Z" fill="#FFB8B8"/>
<path d="M153.646 74.6005C153.646 74.6005 157.228 79.268 156.126 79.8171C155.024 80.3662 148.687 80.6408 144.829 85.3083C140.972 89.9758 149.513 101.782 149.513 101.782L182.024 80.0917L168.799 75.6987C168.799 75.6987 159.707 70.7567 159.983 65.54L153.646 74.6005Z" fill="#FFB8B8"/>
<path d="M197.529 223.891H160.821C158.741 208.741 157.78 194.856 157.78 194.856C157.78 194.856 157.243 208.822 155.816 223.891H108.656C115.341 179.271 147.033 130.886 147.033 130.886C147.033 130.886 147.309 124.295 148.136 123.195C148.963 122.1 143.452 121.825 140.97 113.589C139.458 108.561 140.818 105.271 142.111 103.474C142.555 102.826 143.101 102.254 143.728 101.78C143.728 101.78 144.279 96.0172 143.728 95.1928C143.657 95.0851 144.201 94.7064 145.207 94.1308C146.046 93.6481 147.205 93.0279 148.591 92.315C156.532 88.2117 171.903 80.952 177.168 78.4789C178.323 77.933 178.994 77.6211 178.994 77.6211L188.362 80.9149C195.8 83.3843 195.8 99.0362 195.8 99.0362L195.378 99.6749L184.136 116.645L177.615 126.493C179.27 127.588 175.964 134.454 175.964 134.454C175.964 134.454 180.674 141.198 184.505 151.491C186.671 157.22 188.148 163.185 188.906 169.26C189.389 173.197 189.483 177.172 189.189 181.128C188.168 194.355 192.707 210.43 197.529 223.891Z" fill="#2F2E41"/>
<path d="M188.494 82.5332C188.188 82.3621 187.849 82.2596 187.5 82.2327C187.151 82.2058 186.8 82.2552 186.471 82.3775C186.143 82.4998 185.846 82.692 185.6 82.9407C185.354 83.1894 185.166 83.4886 185.048 83.8173C184.218 86.0906 183.378 90.8297 183.677 100.683C184.228 118.804 184.504 131.159 184.504 131.159V158.615C184.504 158.615 172.381 184.973 178.993 184.973C185.606 184.973 190.29 164.106 190.29 164.106C190.29 164.106 196.351 132.532 194.422 127.041C194.422 127.041 199.86 89.1058 188.494 82.5332Z" fill="#FFB8B8"/>
<path d="M149.274 60.5686C155.804 60.5686 161.097 56.9719 161.097 52.5353C161.097 48.0986 155.804 44.502 149.274 44.502C142.744 44.502 137.451 48.0986 137.451 52.5353C137.451 56.9719 142.744 60.5686 149.274 60.5686Z" fill="#2F2E41"/>
<path d="M168.05 46.2335C174.283 46.2335 179.336 41.1982 179.336 34.9869C179.336 28.7755 174.283 23.7402 168.05 23.7402C161.817 23.7402 156.764 28.7755 156.764 34.9869C156.764 41.1982 161.817 46.2335 168.05 46.2335Z" fill="#2F2E41"/>
<path d="M176.111 43.0203C173.281 43.0199 170.554 41.9599 168.472 40.0504C166.389 38.1409 165.103 35.5213 164.867 32.7109C164.842 33.0203 164.825 33.3322 164.825 33.6482C164.825 36.6309 166.014 39.4916 168.131 41.6007C170.247 43.7099 173.118 44.8948 176.111 44.8948C179.104 44.8948 181.975 43.7099 184.091 41.6007C186.208 39.4916 187.397 36.6309 187.397 33.6482C187.397 33.3322 187.38 33.0203 187.355 32.7109C187.119 35.5213 185.833 38.1409 183.75 40.0504C181.667 41.9599 178.941 43.02 176.111 43.0203Z" fill="#2F2E41"/>
<path d="M164.352 62.322C164.87 62.1987 165.061 61.1422 164.778 59.9623C164.495 58.7825 163.846 57.9259 163.328 58.0492C162.81 58.1725 162.619 59.2289 162.902 60.4088C163.185 61.5887 163.834 62.4453 164.352 62.322Z" fill="#FFB8B8"/>
<path d="M164.253 62.108C164.558 62.108 164.804 61.8622 164.804 61.5589C164.804 61.2556 164.558 61.0098 164.253 61.0098C163.949 61.0098 163.702 61.2556 163.702 61.5589C163.702 61.8622 163.949 62.108 164.253 62.108Z" fill="#F2F2F2"/>
<path d="M33.2614 108.591C32.377 108.591 31.5125 108.329 30.7771 107.84C30.0418 107.35 29.4686 106.654 29.1302 105.84C28.7917 105.026 28.7032 104.13 28.8757 103.265C29.0483 102.401 29.4741 101.607 30.0995 100.984C30.7249 100.361 31.5216 99.9363 32.389 99.7643C33.2564 99.5924 34.1555 99.6806 34.9726 100.018C35.7897 100.355 36.488 100.926 36.9794 101.659C37.4707 102.392 37.733 103.253 37.733 104.135C37.7316 105.316 37.2601 106.449 36.4218 107.284C35.5835 108.12 34.4469 108.59 33.2614 108.591ZM33.2614 100.421C32.5244 100.421 31.8039 100.639 31.1912 101.047C30.5784 101.455 30.1008 102.035 29.8187 102.714C29.5367 103.392 29.4629 104.139 29.6067 104.859C29.7504 105.58 30.1053 106.241 30.6265 106.761C31.1476 107.28 31.8116 107.634 32.5344 107.777C33.2573 107.92 34.0065 107.847 34.6874 107.566C35.3683 107.284 35.9503 106.808 36.3597 106.198C36.7692 105.587 36.9877 104.869 36.9877 104.135C36.9866 103.15 36.5936 102.206 35.895 101.51C35.1965 100.814 34.2493 100.423 33.2614 100.421Z" fill="#3F3D56"/>
<path d="M226.844 76.0991H217.155V66.4443H226.844V76.0991ZM217.901 75.3565H226.098V67.187H217.901V75.3565Z" fill="#3F3D56"/>
<path d="M310.334 127.998C293.089 128.077 279.053 128.331 279.053 128.331C279.053 128.331 295.737 106.308 310.271 114.468C324.805 122.627 341.5 128.044 341.5 128.044C341.5 128.044 327.578 127.919 310.334 127.998Z" fill="#F2F2F2"/>
<path d="M257.419 53.7315C240.175 53.8107 226.139 54.0646 226.139 54.0646C226.139 54.0646 242.823 32.0415 257.357 40.2009C271.89 48.3603 288.586 53.7778 288.586 53.7778C288.586 53.7778 274.664 53.6523 257.419 53.7315Z" fill="#F2F2F2"/>
<path d="M93.9663 63.2387L54.0922 42.8061C52.7846 42.1361 51.7977 40.9759 51.3485 39.5807C50.8994 38.1855 51.0248 36.6696 51.6971 35.3666L61.0909 17.1617C61.2273 16.8973 61.4164 16.6634 61.6465 16.4742C61.8766 16.2851 62.143 16.1446 62.4293 16.0614L93.8577 6.92931C95.1143 6.56419 96.4635 6.69315 97.6275 7.28962C98.7915 7.88609 99.6817 8.90467 100.115 10.1356L110.441 39.4889C110.699 40.2222 110.804 41.0001 110.75 41.7753C110.697 42.5505 110.485 43.3066 110.129 43.9977L101.432 60.8519C101.099 61.4971 100.642 62.0707 100.086 62.5398C99.5309 63.009 98.8883 63.3645 98.195 63.5861C97.5018 63.8077 96.7715 63.8911 96.046 63.8315C95.3204 63.7719 94.6137 63.5705 93.9663 63.2387Z" fill="#F2F2F2"/>
<path opacity="0.1" d="M95.5506 56.024L55.2896 38.8954C53.9924 38.2306 55.2087 39.2524 55.8758 37.9597L60.9369 17.4609L110.257 42.7339L97.7883 58.0977C97.1213 59.3905 96.8479 56.6887 95.5506 56.024Z" fill="black"/>
<path d="M74.0893 7.83985L58.0182 38.9852C57.2478 40.4782 57.8378 42.3108 59.336 43.0785L90.5898 59.0939C92.088 59.8616 93.9271 59.2736 94.6975 57.7806L110.769 26.6353C111.539 25.1423 110.949 23.3096 109.451 22.5419L78.197 6.52661C76.6988 5.75889 74.8597 6.34685 74.0893 7.83985Z" fill="#F72F7A"/>
<path opacity="0.1" d="M103.668 40.3959L93.3024 60.4842L56.623 41.6885L66.9886 21.6006L80.7704 39.8318L103.668 40.3959Z" fill="black"/>
<path d="M80.1845 40.9671L62.5259 17.6072C62.4167 17.4627 62.2724 17.3482 62.1067 17.2745C61.9409 17.2007 61.7591 17.1701 61.5782 17.1855C61.3973 17.2009 61.2234 17.2619 61.0726 17.3626C60.9218 17.4633 60.7992 17.6006 60.7162 17.7615L50.6677 37.2352C50.4666 37.6248 50.3446 38.05 50.3084 38.4866C50.2723 38.9232 50.3229 39.3626 50.4571 39.7798C50.5914 40.1969 50.8069 40.5836 51.0911 40.9178C51.3754 41.252 51.7229 41.5271 52.1139 41.7274L95.8943 64.1617C96.2853 64.362 96.712 64.4837 97.1501 64.5197C97.5883 64.5557 98.0292 64.5053 98.4478 64.3715C98.8664 64.2377 99.2545 64.023 99.5898 63.7397C99.9251 63.4564 100.201 63.1101 100.402 62.7205L110.279 43.5804C110.38 43.3841 110.43 43.1654 110.423 42.9447C110.416 42.7241 110.353 42.5088 110.24 42.3189C110.127 42.1291 109.968 41.971 109.777 41.8594C109.585 41.7478 109.369 41.6864 109.148 41.6809L80.1845 40.9671Z" fill="#F2F2F2"/>
<path d="M87.1706 15.3677L76.9128 10.1113L76.1669 11.5569L86.4247 16.8132L87.1706 15.3677Z" fill="#F2F2F2"/>
<path d="M103.829 30.5619L73.3669 14.9521L72.9407 15.7782L103.403 31.388L103.829 30.5619Z" fill="#F2F2F2"/>
<path d="M102.391 33.35L71.9282 17.7402L71.502 18.5663L101.964 34.1761L102.391 33.35Z" fill="#F2F2F2"/>
<path d="M100.952 36.1381L70.4897 20.5283L70.0635 21.3544L100.526 36.9641L100.952 36.1381Z" fill="#F2F2F2"/>
</g>
<defs>
<clipPath id="clip0">
<rect width="341" height="223" fill="white" transform="translate(0.5 0.891602)"/>
</clipPath>
</defs>
</svg>
